<?xml version="1.0" encoding="UTF-8" standalone="no"?>
<!DOCTYPE svg PUBLIC "-//W3C//DTD SVG 1.1//EN"
 "http://www.w3.org/Graphics/SVG/1.1/DTD/svg11.dtd">
<!-- Generated by graphviz version 13.1.2 (20250808.2320)
 -->
<!-- Pages: 1 -->
<svg width="2473pt" height="1263pt"
 viewBox="0.00 0.00 2473.00 1263.00" xmlns="http://www.w3.org/2000/svg" xmlns:xlink="http://www.w3.org/1999/xlink">
<g id="graph0" class="graph" transform="scale(4.16667 4.16667) rotate(0) translate(28.8 274.3)">
<polygon fill="white" stroke="none" points="-28.8,28.8 -28.8,-274.3 564.66,-274.3 564.66,28.8 -28.8,28.8"/>
<text xml:space="preserve" text-anchor="middle" x="267.93" y="-226.3" font-family="Helvetica,sans-Serif" font-size="16.00" fill="#333333">Dependency Graph • 4 modules</text>
<g id="clust1" class="cluster">
<title>cluster_app</title>
<path fill="white" stroke="#d0d0d0" d="M153.37,-25C153.37,-25 515.86,-25 515.86,-25 521.86,-25 527.86,-31 527.86,-37 527.86,-37 527.86,-120 527.86,-120 527.86,-126 521.86,-132 515.86,-132 515.86,-132 153.37,-132 153.37,-132 147.37,-132 141.37,-126 141.37,-120 141.37,-120 141.37,-37 141.37,-37 141.37,-31 147.37,-25 153.37,-25"/>
<text xml:space="preserve" text-anchor="middle" x="334.61" y="-116.6" font-family="Helvetica,sans-Serif" font-size="12.00">app</text>
</g>
<g id="clust2" class="cluster">
<title>cluster_main</title>
<path fill="white" stroke="#d0d0d0" d="M20,-8C20,-8 66,-8 66,-8 72,-8 78,-14 78,-20 78,-20 78,-69 78,-69 78,-75 72,-81 66,-81 66,-81 20,-81 20,-81 14,-81 8,-75 8,-69 8,-69 8,-20 8,-20 8,-14 14,-8 20,-8"/>
<text xml:space="preserve" text-anchor="middle" x="43" y="-65.6" font-family="Helvetica,sans-Serif" font-size="12.00">main</text>
</g>
<g id="clust3" class="cluster">
<title>cluster_legend</title>
<path fill="white" stroke="#b0b0b0" d="M20,-140C20,-140 510.13,-140 510.13,-140 516.13,-140 522.13,-146 522.13,-152 522.13,-152 522.13,-201 522.13,-201 522.13,-207 516.13,-213 510.13,-213 510.13,-213 20,-213 20,-213 14,-213 8,-207 8,-201 8,-201 8,-152 8,-152 8,-146 14,-140 20,-140"/>
<text xml:space="preserve" text-anchor="middle" x="265.06" y="-197.6" font-family="Helvetica,sans-Serif" font-size="12.00" fill="#333333">Legend</text>
</g>
<!-- app_services -->
<g id="node1" class="node">
<title>app_services</title>
<g id="a_node1"><a xlink:title="app.services">
<ellipse fill="#f97068" stroke="#7f0000" stroke-width="2.5" cx="188.12" cy="-51" rx="38.76" ry="18"/>
<text xml:space="preserve" text-anchor="middle" x="188.12" y="-47.12" font-family="Times,serif" font-size="10.00" fill="#ffffff">app.services</text>
</a>
</g>
</g>
<!-- app_models -->
<g id="node2" class="node">
<title>app_models</title>
<g id="a_node2"><a xlink:title="app.models">
<ellipse fill="#f97068" stroke="#7f0000" stroke-width="2.5" cx="482.88" cy="-51" rx="36.98" ry="18"/>
<text xml:space="preserve" text-anchor="middle" x="482.88" y="-47.12" font-family="Times,serif" font-size="10.00" fill="#ffffff">app.models</text>
</a>
</g>
</g>
<!-- app_services&#45;&gt;app_models -->
<g id="edge4" class="edge">
<title>app_services&#45;&gt;app_models</title>
<path fill="none" stroke="#708090" stroke-width="1.5" d="M238.06,-51C292.76,-51 380.73,-51 434.7,-51"/>
<polygon fill="#708090" stroke="#708090" stroke-width="1.5" points="238.27,-48.2 230.27,-51 238.27,-53.8 238.27,-48.2"/>
<polygon fill="#708090" stroke="#708090" stroke-width="1.5" points="434.43,-53.8 442.43,-51 434.43,-48.2 434.43,-53.8"/>
</g>
<!-- app_utils -->
<g id="node3" class="node">
<title>app_utils</title>
<g id="a_node3"><a xlink:title="app.utils">
<ellipse fill="#f97068" stroke="#7f0000" stroke-width="2.5" cx="336.57" cy="-85" rx="30.32" ry="18"/>
<text xml:space="preserve" text-anchor="middle" x="336.57" y="-81.12" font-family="Times,serif" font-size="10.00" fill="#ffffff">app.utils</text>
</a>
</g>
</g>
<!-- app_services&#45;&gt;app_utils -->
<g id="edge3" class="edge">
<title>app_services&#45;&gt;app_utils</title>
<path fill="none" stroke="#d32f2f" stroke-width="3" d="M224.2,-59.14C245.52,-64.09 272.83,-70.43 295.07,-75.6"/>
<polygon fill="#d32f2f" stroke="#d32f2f" stroke-width="3" points="294.31,-78.29 302.74,-77.38 295.58,-72.84 294.31,-78.29"/>
</g>
<!-- app_utils&#45;&gt;app_models -->
<g id="edge6" class="edge">
<title>app_utils&#45;&gt;app_models</title>
<path fill="none" stroke="#d32f2f" stroke-width="3" d="M366.08,-78.28C386.07,-73.57 413.2,-67.18 436.18,-61.77"/>
<polygon fill="#d32f2f" stroke="#d32f2f" stroke-width="3" points="436.54,-64.56 443.69,-60 435.26,-59.11 436.54,-64.56"/>
</g>
<!-- main -->
<g id="node4" class="node">
<title>main</title>
<g id="a_node4"><a xlink:title="main">
<ellipse fill="#bbdefb" stroke="#1e88e5" cx="43" cy="-34" rx="27" ry="18"/>
<text xml:space="preserve" text-anchor="middle" x="43" y="-30.12" font-family="Times,serif" font-size="10.00" fill="#000000">main</text>
</a>
</g>
</g>
<!-- main&#45;&gt;app_services -->
<g id="edge2" class="edge">
<title>main&#45;&gt;app_services</title>
<path fill="none" stroke="#708090" stroke-width="1.5" d="M69.92,-37.08C89.22,-39.37 116.11,-42.57 139.27,-45.32"/>
<polygon fill="#708090" stroke="#708090" stroke-width="1.5" points="138.75,-48.07 147.02,-46.24 139.41,-42.51 138.75,-48.07"/>
</g>
<!-- main&#45;&gt;app_models -->
<g id="edge1" class="edge">
<title>main&#45;&gt;app_models</title>
<path fill="none" stroke="#708090" stroke-width="1.5" d="M69.58,-29.53C98.43,-24.5 141.37,-17 141.37,-17 141.37,-17 227.25,-17 227.25,-17 227.25,-17 362.71,-35.09 436.03,-44.88"/>
<polygon fill="#708090" stroke="#708090" stroke-width="1.5" points="435.39,-47.62 443.69,-45.9 436.13,-42.07 435.39,-47.62"/>
</g>
<!-- legend_local -->
<g id="node5" class="node">
<title>legend_local</title>
<path fill="#bbdefb" stroke="#1e88e5" d="M58,-184C58,-184 28,-184 28,-184 22,-184 16,-178 16,-172 16,-172 16,-160 16,-160 16,-154 22,-148 28,-148 28,-148 58,-148 58,-148 64,-148 70,-154 70,-160 70,-160 70,-172 70,-172 70,-178 64,-184 58,-184"/>
<text xml:space="preserve" text-anchor="middle" x="43" y="-160.95" font-family="Times,serif" font-size="14.00">Local</text>
</g>
<!-- legend_third -->
<g id="node6" class="node">
<title>legend_third</title>
<path fill="#ffe0b2" stroke="#fb8c00" d="M215.25,-184C215.25,-184 161,-184 161,-184 155,-184 149,-178 149,-172 149,-172 149,-160 149,-160 149,-154 155,-148 161,-148 161,-148 215.25,-148 215.25,-148 221.25,-148 227.25,-154 227.25,-160 227.25,-160 227.25,-172 227.25,-172 227.25,-178 221.25,-184 215.25,-184"/>
<text xml:space="preserve" text-anchor="middle" x="188.12" y="-160.95" font-family="Times,serif" font-size="14.00">Third&#45;party</text>
</g>
<!-- legend_local&#45;&gt;legend_third -->
<g id="edge7" class="edge">
<title>legend_local&#45;&gt;legend_third</title>
<path fill="none" stroke="black" d="M70.25,-166C89.54,-166 116.3,-166 139.34,-166"/>
<polygon fill="black" stroke="black" points="139.12,-168.8 147.12,-166 139.12,-163.2 139.12,-168.8"/>
</g>
<!-- legend_std -->
<g id="node7" class="node">
<title>legend_std</title>
<path fill="#eeeeee" stroke="#6d6d6d" d="M351.57,-184C351.57,-184 321.57,-184 321.57,-184 315.57,-184 309.57,-178 309.57,-172 309.57,-172 309.57,-160 309.57,-160 309.57,-154 315.57,-148 321.57,-148 321.57,-148 351.57,-148 351.57,-148 357.57,-148 363.57,-154 363.57,-160 363.57,-160 363.57,-172 363.57,-172 363.57,-178 357.57,-184 351.57,-184"/>
<text xml:space="preserve" text-anchor="middle" x="336.57" y="-160.95" font-family="Times,serif" font-size="14.00">Stdlib</text>
</g>
<!-- legend_third&#45;&gt;legend_std -->
<g id="edge8" class="edge">
<title>legend_third&#45;&gt;legend_std</title>
<path fill="none" stroke="black" d="M227.6,-166C250.04,-166 278.16,-166 300.07,-166"/>
<polygon fill="black" stroke="black" points="299.84,-168.8 307.84,-166 299.84,-163.2 299.84,-168.8"/>
</g>
<!-- legend_cycle -->
<g id="node8" class="node">
<title>legend_cycle</title>
<path fill="#f97068" stroke="#7f0000" stroke-width="2" d="M502.13,-184C502.13,-184 463.63,-184 463.63,-184 457.63,-184 451.63,-178 451.63,-172 451.63,-172 451.63,-160 451.63,-160 451.63,-154 457.63,-148 463.63,-148 463.63,-148 502.13,-148 502.13,-148 508.13,-148 514.13,-154 514.13,-160 514.13,-160 514.13,-172 514.13,-172 514.13,-178 508.13,-184 502.13,-184"/>
<text xml:space="preserve" text-anchor="middle" x="482.88" y="-160.95" font-family="Times,serif" font-size="14.00" fill="#ffffff">In Cycle</text>
</g>
<!-- legend_std&#45;&gt;legend_cycle -->
<g id="edge9" class="edge">
<title>legend_std&#45;&gt;legend_cycle</title>
<path fill="none" stroke="black" d="M364.04,-166C385.81,-166 416.99,-166 441.82,-166"/>
<polygon fill="black" stroke="black" points="441.82,-168.8 449.82,-166 441.82,-163.2 441.82,-168.8"/>
</g>
</g>
</svg>
